<svg width="69" height="24" viewBox="0 0 69 24" fill="none" xmlns="http://www.w3.org/2000/svg">
<path d="M0.25705 0.491791H16.337V4.42622H4.60065V10.0131H16.0105V13.8138H4.60065V19.4951H16.337V23.4295H0.25705V0.491791ZM60.7449 23.8426C65.6748 23.8426 68.4525 21.482 68.4525 18.24C68.4525 15.9305 66.8079 14.2072 63.3652 13.4597L59.7259 12.7161C57.6131 12.3226 56.9482 11.9292 56.9482 11.1423C56.9482 10.1233 57.9672 9.49769 59.8439 9.49769C61.878 9.49769 63.3849 10.0446 63.7784 11.9252H68.0433C67.8111 8.38425 65.2656 6.0472 60.1036 6.0472C55.642 6.0472 52.5102 7.88851 52.5102 11.457C52.5102 13.9239 54.2334 15.5292 57.9515 16.3121L62.0197 17.2524C63.6249 17.5672 64.0538 18 64.0538 18.6649C64.0538 19.7233 62.842 20.3882 60.8826 20.3882C58.4197 20.3882 57.0111 19.8413 56.4643 17.9606H52.1757C52.8013 21.4938 55.4216 23.8426 60.7449 23.8426ZM50.9364 23.4138H46.3213C43.4256 23.4138 41.8203 21.6118 41.8203 19.3377V10.3279H38.5744V6.48786H41.8361V1.66818H46.1246V6.48786H50.9364V10.3279H46.1246V18.24C46.1246 19.141 46.7502 19.5738 47.7298 19.5738H50.9364V23.4138ZM32.4446 6.49573V8.02228C30.9347 6.7459 29.0197 6.04856 27.0426 6.05507C25.8589 6.03017 24.6822 6.24181 23.5813 6.67758C22.4805 7.11335 21.4777 7.76448 20.6318 8.59281C19.7859 9.42114 19.1138 10.41 18.655 11.5014C18.1961 12.5929 17.9598 13.7649 17.9598 14.9488C17.9598 16.1328 18.1961 17.3048 18.655 18.3963C19.1138 19.4877 19.7859 20.4765 20.6318 21.3049C21.4777 22.1332 22.4805 22.7843 23.5813 23.2201C24.6822 23.6559 25.8589 23.8675 27.0426 23.8426C29.0201 23.8512 30.9357 23.1536 32.4446 21.8754V23.4059H36.7213V6.48786L32.4446 6.49573ZM27.3967 20.1285C26.3708 20.1402 25.3647 19.8467 24.506 19.2851C23.6474 18.7236 22.9751 17.9195 22.5745 16.975C22.174 16.0305 22.0633 14.9882 22.2565 13.9806C22.4498 12.973 22.9382 12.0456 23.6598 11.3163C24.3813 10.587 25.3034 10.0887 26.3089 9.88464C27.3143 9.68062 28.3577 9.78014 29.3065 10.1705C30.2552 10.5609 31.0665 11.2246 31.6372 12.0772C32.2079 12.9297 32.5122 13.9327 32.5115 14.9587C32.5177 15.635 32.3898 16.3058 32.135 16.9323C31.8803 17.5589 31.5038 18.1286 31.0274 18.6087C30.551 19.0888 29.9841 19.4696 29.3596 19.7291C28.735 19.9886 28.0652 20.1217 27.3888 20.1206L27.3967 20.1285Z" fill="#5FB709"/>
</svg>
