<svg width="70" height="24" viewBox="0 0 70 24" fill="none" xmlns="http://www.w3.org/2000/svg">
<path d="M67.7121 9.66294C65.56 9.66294 64.0334 11.3469 64.0334 13.9318V23.4138H60.7482V6.72392H63.9941V8.76195C64.3945 8.08647 64.9682 7.53036 65.6558 7.15126C66.3435 6.77216 67.12 6.58386 67.9049 6.60589H69.0852V9.66294H67.7121ZM58.478 15.0688C58.478 10.0918 54.937 6.36982 50.1449 6.36982C49.0126 6.37751 47.8931 6.609 46.8506 7.05098C45.8082 7.49296 44.8634 8.1367 44.0706 8.94517C43.2779 9.75364 42.6528 10.7109 42.2314 11.7618C41.81 12.8128 41.6005 13.9367 41.6151 15.0688C41.6151 20.042 45.4511 23.8033 50.4557 23.8033C51.8537 23.8297 53.2375 23.5196 54.4906 22.8993C55.7436 22.2789 56.8292 21.3664 57.6557 20.2387L55.2715 18.4918C54.7245 19.2552 54.0007 19.8748 53.162 20.2976C52.3234 20.7203 51.3948 20.9337 50.4557 20.9193C49.1182 20.913 47.8273 20.4278 46.8168 19.5515C45.8063 18.6753 45.1432 17.466 44.9475 16.1429H58.4859L58.478 15.0688ZM45.0184 13.5384C45.6046 10.9928 47.6387 9.2695 50.1056 9.2695C52.5724 9.2695 54.6026 10.9928 55.1534 13.5384H45.0184ZM31.2085 6.36982C30.1106 6.37075 29.0238 6.58923 28.0108 7.01265C26.9979 7.43607 26.0788 8.05603 25.3069 8.83671V0.491791H22.0216V23.4138H25.2675V21.297C26.84 22.8878 28.9797 23.7892 31.2164 23.8033C32.3767 23.8279 33.5302 23.6207 34.6093 23.1937C35.6885 22.7667 36.6715 22.1286 37.5008 21.3167C38.3301 20.5049 38.989 19.5356 39.4388 18.4658C39.8886 17.3959 40.1203 16.2471 40.1203 15.0865C40.1203 13.926 39.8886 12.7771 39.4388 11.7073C38.989 10.6375 38.3301 9.66823 37.5008 8.85637C36.6715 8.0445 35.6885 7.40637 34.6093 6.97939C33.5302 6.55241 32.3767 6.34517 31.2164 6.36982H31.2085ZM30.9724 20.8682C29.8273 20.8736 28.7064 20.5388 27.7519 19.9062C26.7974 19.2735 26.0524 18.3716 25.6113 17.3149C25.1702 16.2581 25.0529 15.0942 25.2744 13.9707C25.4959 12.8472 26.0461 11.8148 26.8553 11.0045C27.6645 10.1943 28.6961 9.64261 29.8193 9.41958C30.9425 9.19656 32.1066 9.31221 33.164 9.75186C34.2213 10.1915 35.1242 10.9353 35.7582 11.889C36.3921 12.8426 36.7285 13.9631 36.7246 15.1082C36.7256 15.8635 36.5775 16.6116 36.2887 17.3095C35.9999 18.0074 35.5761 18.6414 35.0417 19.1751C34.5072 19.7088 33.8726 20.1317 33.1743 20.4196C32.476 20.7074 31.7277 20.8545 30.9724 20.8524V20.8682ZM9.92327 20.7108C13.0944 20.7108 15.5574 18.2793 15.5574 14.6361V0.491791H18.9606V23.4138H15.5967V21.2459C14.8108 22.0581 13.8683 22.7025 12.8261 23.1401C11.784 23.5776 10.664 23.7992 9.53376 23.7915C4.64327 23.7915 0.878021 20.2269 0.878021 14.821V0.491791H4.34425V14.6557C4.34425 18.3187 6.70491 20.7108 9.92327 20.7108Z" fill="#262626"/>
</svg>
